<svg width="151" height="41" viewBox="0 0 151 41" fill="none" xmlns="http://www.w3.org/2000/svg">
<g id="Discord-logo-white">
<rect width="151" height="41" fill="#5033D2"/>
<g id="Group">
<path id="Vector" d="M21.8956 17.2022C20.7171 17.2022 19.7867 18.2153 19.7867 19.4765C19.7867 20.7378 20.7378 21.7509 21.8956 21.7509C23.0741 21.7509 24.0045 20.7378 24.0045 19.4765C24.0045 18.2153 23.0535 17.2022 21.8956 17.2022ZM14.349 17.2022C13.1705 17.2022 12.2401 18.2153 12.2401 19.4765C12.2401 20.7378 13.1911 21.7509 14.349 21.7509C15.5275 21.7509 16.4579 20.7378 16.4579 19.4765C16.4786 18.2153 15.5275 17.2022 14.349 17.2022Z" fill="white"/>
<path id="Vector_2" d="M31.944 0H4.23853C1.90217 0 0 1.90217 0 4.23853V31.944C0 34.2804 1.90217 36.1826 4.23853 36.1826H27.6848L26.589 32.3989L29.2355 34.8386L31.7373 37.1336L36.2032 41V4.23853C36.1826 1.90217 34.2804 0 31.944 0ZM23.9632 26.7751C23.9632 26.7751 23.2189 25.886 22.5986 25.121C25.3071 24.356 26.3409 22.6813 26.3409 22.6813C25.4932 23.2395 24.6868 23.6324 23.9632 23.9012C22.9294 24.3354 21.937 24.6041 20.9652 24.7902C18.9803 25.1624 17.1609 25.059 15.6102 24.7695C14.4317 24.5421 13.4186 24.232 12.5709 23.8805C12.0953 23.6944 11.5784 23.467 11.0615 23.1775C10.9995 23.1362 10.9375 23.1155 10.8754 23.0741C10.8341 23.0535 10.8134 23.0328 10.7927 23.0328C10.4206 22.826 10.2138 22.6813 10.2138 22.6813C10.2138 22.6813 11.2063 24.3147 13.8321 25.1004C13.2118 25.886 12.4468 26.7958 12.4468 26.7958C7.87746 26.651 6.1407 23.6737 6.1407 23.6737C6.1407 17.0782 9.118 11.7231 9.118 11.7231C12.0953 9.51084 14.9072 9.57287 14.9072 9.57287L15.114 9.82098C11.3923 10.8754 9.69693 12.5088 9.69693 12.5088C9.69693 12.5088 10.1518 12.2607 10.9168 11.9299C13.1291 10.9581 14.8865 10.71 15.6102 10.6273C15.7342 10.6067 15.8376 10.586 15.9617 10.586C17.2229 10.4206 18.6495 10.3792 20.1382 10.5446C22.1024 10.7721 24.2113 11.351 26.3616 12.5088C26.3616 12.5088 24.7282 10.9581 21.2133 9.90368L21.5028 9.57287C21.5028 9.57287 24.3354 9.51084 27.292 11.7231C27.292 11.7231 30.2693 17.0782 30.2693 23.6737C30.2693 23.6531 28.5325 26.6304 23.9632 26.7751ZM55.1836 8.84922H48.3192V16.5613L52.8886 20.6757V13.1911H55.3283C56.879 13.1911 57.644 13.9355 57.644 15.1346V20.8618C57.644 22.061 56.9203 22.8674 55.3283 22.8674H48.2985V27.23H55.1629C58.8432 27.2506 62.296 25.4105 62.296 21.1926V15.0313C62.3167 10.7307 58.8638 8.84922 55.1836 8.84922V8.84922ZM91.1594 21.1926V14.8659C91.1594 12.5915 95.2532 12.0746 96.4937 14.349L100.277 12.819C98.7887 9.55219 96.0802 8.60111 93.8265 8.60111C90.1462 8.60111 86.5073 10.7307 86.5073 14.8659V21.1926C86.5073 25.3691 90.1462 27.4574 93.7438 27.4574C96.0595 27.4574 98.8301 26.3202 100.36 23.3429L96.3076 21.4821C95.3152 24.0252 91.1594 23.4049 91.1594 21.1926V21.1926ZM78.6505 15.7342C77.2239 15.4241 76.2728 14.9072 76.2108 14.0182C76.2935 11.8886 79.5809 11.8058 81.5038 13.8527L84.5431 11.5164C82.641 9.20071 80.4907 8.58043 78.2784 8.58043C74.9082 8.58043 71.6415 10.4826 71.6415 14.0802C71.6415 17.5744 74.3293 19.4559 77.2859 19.9107C78.7953 20.1175 80.47 20.7171 80.4287 21.7509C80.3046 23.7151 76.2521 23.6117 74.412 21.3787L71.4761 24.1286C73.1921 26.3409 75.5285 27.4574 77.7201 27.4574C81.0903 27.4574 84.8326 25.5139 84.9773 21.9576C85.1841 17.471 81.9173 16.3338 78.6505 15.7342V15.7342ZM64.7978 27.2093H69.4292V8.84922H64.7978V27.2093ZM142.89 8.84922H136.026V16.5613L140.595 20.6757V13.1911H143.035C144.585 13.1911 145.35 13.9355 145.35 15.1346V20.8618C145.35 22.061 144.627 22.8674 143.035 22.8674H136.005V27.23H142.89C146.57 27.2506 150.023 25.4105 150.023 21.1926V15.0313C150.023 10.7307 146.57 8.84922 142.89 8.84922V8.84922ZM109.209 8.60111C105.405 8.60111 101.621 10.6687 101.621 14.9072V21.172C101.621 25.3691 105.426 27.4781 109.251 27.4781C113.055 27.4781 116.839 25.3691 116.839 21.172V14.9072C116.839 10.6894 113.014 8.60111 109.209 8.60111V8.60111ZM112.187 21.172C112.187 22.4952 110.698 23.1775 109.23 23.1775C107.741 23.1775 106.253 22.5366 106.253 21.172V14.9072C106.253 13.5633 107.7 12.8396 109.147 12.8396C110.657 12.8396 112.187 13.4806 112.187 14.9072V21.172ZM133.462 14.9072C133.359 10.6067 130.423 8.86989 126.639 8.86989H119.299V27.23H123.992V21.3994H124.819L129.079 27.23H134.868L129.864 20.9239C132.077 20.2209 133.462 18.298 133.462 14.9072V14.9072ZM126.722 17.3883H123.992V13.1911H126.722C129.637 13.1911 129.637 17.3883 126.722 17.3883Z" fill="white"/>
</g>
</g>
</svg>
