<svg width="500" height="500" viewBox="0 0 500 500" fill="none" xmlns="http://www.w3.org/2000/svg">
<rect width="500" height="500" fill="#5033D2"/>
<path d="M79.3093 423.845C76.2426 423.845 73.5045 421.451 69.593 421.451C62.5992 421.451 59.2822 427.678 59.2822 433.984C59.2822 440.039 62.9434 446.344 69.593 446.344C72.6597 446.344 77.2596 443.778 78.7147 443.778C81.6092 443.778 84.0031 446.25 84.0031 449.145C84.0031 455.45 73.4263 457.594 68.9985 457.594C55.7775 457.594 47 446.767 47 433.968C47 421.514 56.0435 410.17 68.9985 410.17C73.8644 410.17 84.0031 411.954 84.0031 417.931C83.9874 420.528 82.2038 423.845 79.3093 423.845Z" fill="white"/>
<path d="M130.472 433.999C130.472 446.798 121.695 457.625 108.474 457.625C95.2527 457.625 86.4752 446.798 86.4752 433.999C86.4752 421.545 95.5187 410.202 108.474 410.202C121.429 410.202 130.472 421.545 130.472 433.999ZM98.7418 433.999C98.7418 439.882 101.808 446.36 108.458 446.36C115.108 446.36 118.174 439.882 118.174 433.999C118.174 428.116 115.186 421.467 108.458 421.467C101.73 421.467 98.7418 428.116 98.7418 433.999Z" fill="white"/>
<path d="M135.667 417.54C135.667 413.44 138.217 410.718 141.8 410.718C144.96 410.718 146.994 412.423 147.432 415.24C149.826 411.907 153.488 410.202 159.292 410.202C168.93 410.202 176.096 416.335 176.096 426.74V450.271C176.096 454.371 173.546 457.093 169.963 457.093C166.38 457.093 163.83 454.371 163.83 450.271V428.867C163.83 423.157 160.247 420.418 155.819 420.418C150.781 420.418 147.98 424.08 147.98 428.867V450.271C147.98 454.371 145.43 457.093 141.847 457.093C138.264 457.093 135.714 454.371 135.714 450.271V417.54H135.667Z" fill="white"/>
<path d="M180.274 420.278C179.679 418.744 179.507 417.806 179.507 416.695C179.507 412.768 182.574 410.734 185.906 410.734C189.317 410.734 190.772 413.206 191.367 415.083L199.206 439.303H199.378L207.216 415.083C207.811 413.206 209.266 410.734 212.677 410.734C216.009 410.734 219.076 412.783 219.076 416.695C219.076 417.806 218.904 418.744 218.309 420.278L205.949 451.992C204.76 455.153 203.477 457.109 199.299 457.109C195.122 457.109 193.839 455.153 192.65 451.992L180.274 420.278Z" fill="white"/>
<path d="M260.257 410.468C260.257 415.834 257.957 420.528 253.263 423.516C259.396 426.333 263.668 432.044 263.668 438.787C263.668 449.02 254.28 457.641 242.185 457.641C229.559 457.641 221.72 448.347 221.72 441.603C221.72 438.271 225.209 435.893 228.292 435.893C234.096 435.893 232.72 445.875 242.358 445.875C246.785 445.875 250.368 442.464 250.368 437.942C250.368 426.004 235.88 434.782 235.88 424.721C235.88 415.772 247.99 421.827 247.99 412.361C247.99 409.122 245.69 406.65 241.857 406.65C233.752 406.65 234.863 415.005 229.074 415.005C225.585 415.005 223.535 411.844 223.535 408.7C223.535 402.05 232.657 394.884 242.123 394.884C254.374 394.868 260.257 403.818 260.257 410.468Z" fill="white"/>
<path d="M271.256 416.867C271.256 412.768 274.495 410.734 277.561 410.734C280.8 410.734 283.538 411.923 283.538 415.85H283.71C286.01 412.439 288.482 410.734 292.316 410.734C295.304 410.734 298.292 412.861 298.292 417.305C298.292 421.31 294.631 421.576 290.954 423.266C287.293 424.972 283.538 426.599 283.538 431.449V450.303C283.538 454.402 280.988 457.124 277.405 457.124C273.822 457.124 271.272 454.402 271.272 450.303V416.867H271.256Z" fill="white"/>
<path d="M328.505 424.533C326.205 424.533 321.511 420.95 317.506 420.95C315.284 420.95 313.328 421.967 313.328 424.361C313.328 430.072 334.654 429.227 334.654 443.199C334.654 451.382 327.754 457.609 317.177 457.609C310.277 457.609 300.045 453.682 300.045 448.143C300.045 446.266 301.922 442.683 305.333 442.683C310.105 442.683 312.233 446.86 318.038 446.86C321.793 446.86 322.904 445.671 322.904 443.371C322.904 437.739 301.578 438.599 301.578 424.518C301.578 415.991 308.494 410.186 318.21 410.186C324.265 410.186 333.559 413.002 333.559 419.057C333.543 421.889 331.415 424.533 328.505 424.533Z" fill="white"/>
<path d="M354.947 399.046C354.947 402.879 351.88 406.118 348.047 406.118C344.386 406.118 341.132 402.785 341.132 399.046C341.132 395.557 344.37 392.302 348.047 392.302C351.708 392.302 354.947 395.463 354.947 399.046ZM341.898 417.54C341.898 413.44 344.449 410.718 348.032 410.718C351.615 410.718 354.165 413.44 354.165 417.54V450.287C354.165 454.386 351.615 457.109 348.032 457.109C344.449 457.109 341.898 454.386 341.898 450.287V417.54Z" fill="white"/>
<path d="M404.874 433.999C404.874 446.798 396.081 457.625 382.875 457.625C369.67 457.625 360.877 446.798 360.877 433.999C360.877 421.545 369.92 410.202 382.875 410.202C395.83 410.202 404.874 421.545 404.874 433.999ZM373.144 433.999C373.144 439.882 376.21 446.36 382.86 446.36C389.509 446.36 392.576 439.882 392.576 433.999C392.576 428.116 389.588 421.467 382.86 421.467C376.132 421.467 373.144 428.116 373.144 433.999Z" fill="white"/>
<path d="M411.57 417.54C411.57 413.44 414.136 410.718 417.704 410.718C420.864 410.718 422.898 412.423 423.336 415.24C425.73 411.907 429.391 410.202 435.196 410.202C444.834 410.202 452 416.335 452 426.74V450.271C452 454.371 449.434 457.093 445.867 457.093C442.284 457.093 439.734 454.371 439.734 450.271V428.867C439.734 423.157 436.151 420.418 431.723 420.418C426.685 420.418 423.884 424.08 423.884 428.867V450.271C423.884 454.371 421.318 457.093 417.751 457.093C414.183 457.093 411.617 454.371 411.617 450.271V417.54H411.57Z" fill="white"/>
<path d="M345 136.03C345 136.004 344.973 136.004 344.947 135.977V153.826C344.947 153.852 344.947 153.879 344.947 153.905L345 136.03Z" fill="#9684E8"/>
<path d="M344.947 156.22V153.826C344.521 148.931 340.983 137.467 317.575 124.406C290.682 154.358 189.017 171.435 178.643 170.956C188.272 171.621 256.82 177.234 282.862 190.374C301.695 190.374 344.947 172.738 344.947 156.353C344.947 156.326 344.947 156.273 344.947 156.22Z" fill="#9684E8"/>
<path d="M318.437 262.034C317.55 252.217 305.776 241.396 254.215 230.258C221.068 223.079 179.024 224.795 179.024 224.795V171.06C194.266 171.06 294.162 167.18 317.066 205.687C318.034 207.297 318.437 208.801 318.437 211.018C318.41 213.024 318.437 254.064 318.437 262.034Z" fill="white"/>
<path d="M344.407 157.939C344.247 157.096 350.773 128.659 261.488 103.542C229.632 94.5892 179.525 95.3239 160.586 96.0042C156.422 96.1403 153 92.7387 153 88.4664V47.757C153 43.9745 155.891 40.8996 159.578 40.8724C193.902 40.5458 321.25 40.7907 344.433 99.4329V157.939H344.407Z" fill="white"/>
<path d="M294.431 241.587C265.209 260.132 217.525 278.381 201.33 278.004C222.086 284.571 226.893 287.774 253.657 301.07C272.774 301.07 318.055 281.61 318.437 261.989C317.727 255.583 312.32 248.72 294.431 241.587Z" fill="#9684E8"/>
<path d="M283.746 353.118C278.514 342.396 260.683 337.327 243.51 334.33C209.465 328.361 201.33 331.918 201.33 331.918V276.905C223.707 276.905 281.691 276.608 284.978 307.288L283.746 353.118Z" fill="white"/>
</svg>
