<svg width="150" height="42" viewBox="0 0 150 42" fill="none" xmlns="http://www.w3.org/2000/svg">
<g id="slack-logo-white">
<rect width="150" height="41.1111" fill="#5033D2"/>
<g id="Group">
<g id="Group_2">
<path id="Vector" d="M51.2272 30.299L52.8759 26.4698C54.6575 27.7994 57.0242 28.4908 59.3642 28.4908C61.0927 28.4908 62.1829 27.826 62.1829 26.8155C62.1563 23.9968 51.8388 26.2039 51.7591 19.1306C51.7325 15.5407 54.9234 12.7752 59.444 12.7752C62.1297 12.7752 64.8155 13.44 66.7301 14.9557L65.1878 18.8647C63.4327 17.7478 61.2522 16.9501 59.1781 16.9501C57.7687 16.9501 56.838 17.6149 56.838 18.4658C56.8646 21.2313 67.2619 19.7156 67.3683 26.4698C67.3683 30.1394 64.2571 32.7188 59.7897 32.7188C56.5189 32.7188 53.5141 31.9477 51.2272 30.299Z" fill="white"/>
<path id="Vector_2" d="M114.488 25.0871C113.664 26.523 112.122 27.5069 110.34 27.5069C107.708 27.5069 105.58 25.3796 105.58 22.747C105.58 20.1145 107.708 17.9871 110.34 17.9871C112.122 17.9871 113.664 18.971 114.488 20.407L119.035 17.8808C117.334 14.8493 114.063 12.7752 110.34 12.7752C104.836 12.7752 100.368 17.2426 100.368 22.747C100.368 28.2514 104.836 32.7188 110.34 32.7188C114.089 32.7188 117.334 30.6713 119.035 27.6132L114.488 25.0871Z" fill="white"/>
<path id="Vector_3" d="M75.3457 4.50525H69.6551V32.3465H75.3457V4.50525Z" fill="white"/>
<path id="Vector_4" d="M121.269 4.50525V32.3465H126.96V23.9968L133.714 32.3465H141L132.411 22.4279L140.362 13.1741H133.395L126.96 20.859V4.50525H121.269Z" fill="white"/>
<path id="Vector_5" d="M92.2579 25.1402C91.4335 26.4964 89.7317 27.5069 87.8171 27.5069C85.1845 27.5069 83.0572 25.3796 83.0572 22.747C83.0572 20.1145 85.1845 17.9871 87.8171 17.9871C89.7317 17.9871 91.4335 19.0508 92.2579 20.4336V25.1402ZM92.2579 13.1741V15.4344C91.3272 13.8655 89.0137 12.7752 86.5939 12.7752C81.5947 12.7752 77.6591 17.1894 77.6591 22.7204C77.6591 28.2514 81.5947 32.7188 86.5939 32.7188C89.0137 32.7188 91.3272 31.6286 92.2579 30.0597V32.3199H97.9484V13.1741H92.2579Z" fill="white"/>
</g>
<g id="Group_3">
<g id="Group_4">
<path id="Vector_6" d="M16.0467 25.1136C16.0467 27.0548 14.4778 28.6237 12.5367 28.6237C10.5955 28.6237 9.02658 27.0548 9.02658 25.1136C9.02658 23.1724 10.5955 21.6035 12.5367 21.6035H16.0467V25.1136Z" fill="white"/>
<path id="Vector_7" d="M17.8017 25.1136C17.8017 23.1724 19.3706 21.6035 21.3118 21.6035C23.253 21.6035 24.8219 23.1724 24.8219 25.1136V33.8888C24.8219 35.8299 23.253 37.3988 21.3118 37.3988C19.3706 37.3988 17.8017 35.8299 17.8017 33.8888V25.1136Z" fill="white"/>
</g>
<g id="Group_5">
<path id="Vector_8" d="M21.3118 11.0201C19.3707 11.0201 17.8018 9.45125 17.8018 7.51007C17.8018 5.5689 19.3707 4 21.3118 4C23.253 4 24.8219 5.5689 24.8219 7.51007V11.0201H21.3118Z" fill="white"/>
<path id="Vector_9" d="M21.3118 12.8018C23.253 12.8018 24.8219 14.3707 24.8219 16.3118C24.8219 18.253 23.253 19.8219 21.3118 19.8219H12.5101C10.5689 19.8219 9 18.253 9 16.3118C9 14.3707 10.5689 12.8018 12.5101 12.8018H21.3118Z" fill="white"/>
</g>
<g id="Group_6">
<path id="Vector_10" d="M35.3787 16.3118C35.3787 14.3707 36.9476 12.8018 38.8888 12.8018C40.83 12.8018 42.3989 14.3707 42.3989 16.3118C42.3989 18.253 40.83 19.8219 38.8888 19.8219H35.3787V16.3118Z" fill="white"/>
<path id="Vector_11" d="M33.6237 16.3118C33.6237 18.253 32.0548 19.8219 30.1136 19.8219C28.1724 19.8219 26.6035 18.253 26.6035 16.3118V7.51007C26.6035 5.5689 28.1724 4 30.1136 4C32.0548 4 33.6237 5.5689 33.6237 7.51007V16.3118Z" fill="white"/>
</g>
<g id="Group_7">
<path id="Vector_12" d="M30.1137 30.3787C32.0548 30.3787 33.6237 31.9476 33.6237 33.8888C33.6237 35.83 32.0548 37.3989 30.1137 37.3989C28.1725 37.3989 26.6036 35.83 26.6036 33.8888V30.3787H30.1137Z" fill="white"/>
<path id="Vector_13" d="M30.1136 28.6237C28.1724 28.6237 26.6035 27.0548 26.6035 25.1136C26.6035 23.1724 28.1724 21.6035 30.1136 21.6035H38.9154C40.8566 21.6035 42.4255 23.1724 42.4255 25.1136C42.4255 27.0548 40.8566 28.6237 38.9154 28.6237H30.1136Z" fill="white"/>
</g>
</g>
</g>
</g>
</svg>
