<svg width="178" height="41" viewBox="0 0 178 41" fill="none" xmlns="http://www.w3.org/2000/svg">
<g id="WhatsApp-logo-white">
<rect width="178" height="41" fill="#5033D2"/>
<g id="Group 1">
<path id="grey" d="M173.059 24.9144C172.967 25.4691 172.782 25.9313 172.504 26.3473C172.227 26.7633 171.903 27.0869 171.441 27.3642C171.025 27.6416 170.47 27.734 169.823 27.734C169.176 27.734 168.668 27.5954 168.206 27.3642C167.743 27.0869 167.42 26.7633 167.142 26.3473C166.865 25.9313 166.68 25.4691 166.542 24.9144C166.403 24.3598 166.357 23.8051 166.357 23.2042C166.357 22.6033 166.403 22.0486 166.542 21.4939C166.634 20.9392 166.865 20.4308 167.096 20.0148C167.374 19.5988 167.697 19.229 168.159 18.9979C168.575 18.7205 169.13 18.5819 169.777 18.5819C170.424 18.5819 170.933 18.7205 171.349 18.9979C171.765 19.2752 172.135 19.5988 172.412 20.061C172.689 20.477 172.874 20.9855 173.013 21.5401C173.151 22.0948 173.198 22.6495 173.198 23.2504C173.198 23.8051 173.151 24.3598 173.059 24.9144ZM176.757 20.3846C176.479 19.4601 176.11 18.6281 175.555 17.9347C175 17.2414 174.353 16.6867 173.521 16.2245C172.689 15.8085 171.719 15.5774 170.609 15.5774C169.731 15.5774 168.899 15.7623 168.159 16.0858C167.42 16.4556 166.819 17.0103 166.31 17.7961H166.264V15.9472H162.52V35.3146H166.449V28.5198H166.495C166.958 29.2132 167.605 29.7678 168.344 30.0914C169.084 30.4612 169.916 30.6461 170.794 30.6461C171.857 30.6461 172.782 30.4612 173.567 30.0452C174.353 29.6292 175 29.0745 175.555 28.4274C176.063 27.734 176.48 26.9482 176.711 26.07C176.988 25.1918 177.08 24.2673 177.08 23.2966C177.127 22.3259 177.034 21.3553 176.757 20.3846ZM157.343 24.9144C157.251 25.4691 157.02 25.9313 156.788 26.3473C156.511 26.7633 156.188 27.0869 155.725 27.3642C155.309 27.6416 154.755 27.734 154.108 27.734C153.46 27.734 152.952 27.5954 152.49 27.3642C152.028 27.0869 151.704 26.7633 151.427 26.3473C151.149 25.9313 150.964 25.4691 150.826 24.9144C150.687 24.3598 150.641 23.8051 150.641 23.2042C150.641 22.6033 150.687 22.0486 150.826 21.4939C150.918 20.9392 151.149 20.4308 151.38 20.0148C151.658 19.5988 151.981 19.229 152.444 18.9979C152.86 18.7205 153.414 18.5819 154.061 18.5819C154.708 18.5819 155.217 18.7205 155.633 18.9979C156.049 19.2752 156.419 19.5988 156.696 20.061C156.973 20.477 157.158 20.9855 157.297 21.5401C157.436 22.0948 157.482 22.6495 157.482 23.2504C157.528 23.8051 157.436 24.3598 157.343 24.9144ZM159.885 17.9347C159.331 17.2414 158.684 16.6867 157.852 16.2245C157.02 15.8085 156.049 15.5774 154.94 15.5774C154.061 15.5774 153.229 15.7623 152.49 16.0858C151.75 16.4556 151.149 17.0103 150.641 17.7961H150.595V15.9472H146.851V35.3146H150.779V28.5198H150.826C151.288 29.2132 151.935 29.7678 152.675 30.0914C153.414 30.4612 154.246 30.6461 155.124 30.6461C156.188 30.6461 157.112 30.4612 157.898 30.0452C158.684 29.6292 159.331 29.0745 159.885 28.4274C160.394 27.734 160.81 26.9482 161.087 26.07C161.365 25.1918 161.457 24.2673 161.457 23.2966C161.457 22.2797 161.318 21.309 161.087 20.3846C160.81 19.4601 160.394 18.6281 159.885 17.9347ZM133.954 22.6957L136.543 15.4387H136.589L139.085 22.6957H133.954ZM134.37 10.5391L126.882 30.3225H131.273L132.845 25.9313H140.241L141.72 30.3225H146.25L138.854 10.5391H134.37ZM126.559 24.0824C126.281 23.6202 125.958 23.2504 125.542 22.9268C125.126 22.6033 124.617 22.3722 124.109 22.1873C123.554 22.0024 122.999 21.8637 122.445 21.725C121.89 21.5864 121.335 21.4939 120.827 21.3552C120.272 21.2628 119.81 21.1241 119.394 20.9855C118.978 20.8468 118.654 20.6619 118.377 20.4308C118.1 20.1997 118.007 19.9223 118.007 19.5526C118.007 19.2752 118.1 19.0441 118.238 18.8592C118.377 18.6743 118.562 18.5356 118.793 18.4432C119.024 18.3508 119.255 18.3045 119.487 18.2583C119.764 18.2121 119.995 18.2121 120.226 18.2121C120.919 18.2121 121.52 18.3508 122.075 18.6281C122.583 18.9054 122.861 19.4139 122.953 20.1535H126.697C126.605 19.2752 126.42 18.5356 126.004 17.9347C125.634 17.3338 125.126 16.8716 124.571 16.5481C124.016 16.1783 123.369 15.9472 122.63 15.8085C121.89 15.6698 121.151 15.5774 120.365 15.5774C119.579 15.5774 118.839 15.6698 118.1 15.7623C117.36 15.9009 116.713 16.132 116.112 16.5018C115.511 16.8254 115.049 17.2876 114.679 17.8885C114.31 18.4894 114.125 19.229 114.125 20.1535C114.125 20.8006 114.263 21.309 114.494 21.7713C114.772 22.1873 115.095 22.5571 115.511 22.8344C115.927 23.1117 116.436 23.3428 116.99 23.5277C117.545 23.7126 118.1 23.8513 118.654 23.99C120.041 24.2673 121.151 24.5909 121.936 24.8682C122.722 25.1455 123.092 25.6078 123.092 26.2087C123.092 26.5785 122.999 26.8558 122.861 27.0869C122.676 27.318 122.491 27.5029 122.26 27.6416C122.029 27.7803 121.751 27.8727 121.428 27.9651C121.104 28.0114 120.827 28.0576 120.55 28.0576C120.18 28.0576 119.81 28.0114 119.44 27.9189C119.07 27.8265 118.747 27.6878 118.47 27.5029C118.192 27.318 117.961 27.0407 117.776 26.7633C117.591 26.4398 117.499 26.1162 117.499 25.654H113.755C113.801 26.6247 114.032 27.4105 114.402 28.0576C114.818 28.7047 115.326 29.2132 115.927 29.583C116.528 29.9527 117.268 30.2301 118.054 30.415C118.839 30.5999 119.671 30.6461 120.503 30.6461C121.335 30.6461 122.121 30.5536 122.907 30.415C123.693 30.2763 124.386 29.999 124.987 29.583C125.588 29.2132 126.096 28.7047 126.466 28.0576C126.836 27.4105 127.021 26.6247 127.021 25.7002C126.928 25.0531 126.836 24.4984 126.559 24.0824ZM110.288 11.6946H106.359V15.9934H103.956V18.6281H106.359V27.0869C106.359 27.8265 106.498 28.3812 106.729 28.8434C106.96 29.3056 107.284 29.6292 107.7 29.8603C108.116 30.0914 108.578 30.2763 109.133 30.3225C109.687 30.415 110.242 30.4612 110.843 30.4612C111.213 30.4612 111.629 30.4612 112.045 30.415C112.461 30.415 112.83 30.3687 113.154 30.3225V27.2718C112.969 27.318 112.784 27.318 112.553 27.3642C112.368 27.3642 112.137 27.4105 111.906 27.4105C111.259 27.4105 110.797 27.318 110.565 27.0869C110.334 26.8558 110.242 26.4398 110.242 25.7464V18.6281H113.108V15.9934H110.288V11.6946ZM99.0097 24.7758C99.0097 25.0069 99.0097 25.2842 98.9173 25.654C98.871 26.0238 98.7324 26.3936 98.5475 26.7633C98.3626 27.1331 98.039 27.4567 97.623 27.6878C97.207 27.9651 96.6061 28.0576 95.8203 28.0576C95.4968 28.0576 95.2194 28.0114 94.8959 27.9651C94.6185 27.9189 94.3412 27.8265 94.1101 27.6878C93.8789 27.5491 93.6941 27.3642 93.6016 27.1331C93.4629 26.902 93.4167 26.5785 93.4167 26.2549C93.4167 25.8851 93.4629 25.5615 93.6016 25.3304C93.7403 25.0993 93.9252 24.9144 94.1101 24.7295C94.3412 24.5909 94.5723 24.4522 94.8496 24.3597C95.127 24.2673 95.4043 24.1749 95.7279 24.1286C96.0514 24.0824 96.375 24.0362 96.6523 23.99C96.9759 23.9437 97.2532 23.8975 97.5768 23.8513C97.8541 23.8051 98.1315 23.7126 98.3626 23.6202C98.5937 23.5277 98.8248 23.4353 98.9635 23.2966V24.7758H99.0097ZM102.939 27.1331V19.6912C102.939 18.813 102.754 18.1196 102.338 17.6112C101.968 17.1027 101.46 16.6867 100.859 16.3632C100.258 16.0858 99.5644 15.8547 98.8248 15.7623C98.0852 15.6698 97.3457 15.6236 96.6523 15.6236C95.8665 15.6236 95.0807 15.716 94.295 15.8547C93.5092 15.9934 92.8158 16.2707 92.1687 16.6405C91.5216 17.0103 91.0131 17.5187 90.5971 18.1196C90.1811 18.7205 89.95 19.5063 89.9038 20.4308H93.8327C93.9252 19.645 94.1563 19.0903 94.6185 18.7668C95.0807 18.4432 95.6816 18.2583 96.4674 18.2583C96.8372 18.2583 97.1608 18.3045 97.4381 18.3045C97.7617 18.3508 97.9928 18.4432 98.2239 18.5819C98.455 18.7205 98.6399 18.9054 98.7786 19.1828C98.9173 19.4139 99.0097 19.7837 99.0097 20.1997C99.0097 20.6157 98.9173 20.893 98.6399 21.1241C98.3626 21.3552 98.039 21.4939 97.5768 21.6326C97.1146 21.725 96.6061 21.8175 96.0514 21.8637C95.4968 21.9099 94.8959 22.0024 94.295 22.0948C93.6941 22.1873 93.0932 22.3259 92.5385 22.4646C91.9376 22.6033 91.4291 22.8806 90.9669 23.158C90.5047 23.4815 90.1349 23.8975 89.8575 24.406C89.5802 24.9144 89.4415 25.6078 89.4415 26.4398C89.4415 27.1794 89.5802 27.8265 89.8113 28.3349C90.0424 28.8896 90.4122 29.3056 90.8744 29.6754C91.3367 30.0452 91.8451 30.2763 92.446 30.4612C93.0469 30.6461 93.6941 30.6923 94.3412 30.6923C95.2194 30.6923 96.0977 30.5536 96.9297 30.3225C97.7617 30.0452 98.5012 29.6292 99.1484 28.982C99.1484 29.2132 99.1946 29.4443 99.2408 29.6754C99.287 29.9065 99.3333 30.1376 99.4257 30.3687H103.401C103.216 30.0914 103.077 29.6292 103.031 29.0283C102.985 28.4274 102.939 27.7803 102.939 27.1331ZM86.7144 17.2414C86.3446 16.7329 85.7899 16.3169 85.1428 16.0396C84.4495 15.7623 83.6174 15.6236 82.5543 15.6236C81.8147 15.6236 81.0752 15.8085 80.2894 16.1783C79.5036 16.5481 78.8565 17.149 78.3942 17.981H78.3018V10.5391H74.3728V30.3225H78.3018V22.7882C78.3018 21.309 78.5329 20.2921 79.0414 19.645C79.5036 18.9979 80.2894 18.6743 81.3525 18.6743C82.277 18.6743 82.9703 18.9517 83.3401 19.5526C83.7099 20.1535 83.8948 21.0317 83.8948 22.1873V30.2763H87.8237V21.4477C87.8237 20.5695 87.7313 19.7374 87.5926 18.9979C87.3615 18.3508 87.0842 17.7499 86.7144 17.2414ZM65.914 24.1749H65.8678L62.4935 10.5391H58.4259L55.0054 24.0362H54.9592L51.816 10.5391H47.4248L52.648 30.3225H57.0392L60.321 16.8254H60.3673L63.7415 30.3225H68.0865L73.4021 10.5391H69.1496L65.914 24.1749Z" fill="white"/>
<path id="green" d="M0.138669 20.2921C0.138669 23.8513 1.06313 27.3642 2.86583 30.4612L0 41L10.77 38.1804C13.7282 39.7982 17.0563 40.6302 20.4768 40.6302C31.6628 40.6302 40.8149 31.5243 40.8149 20.3383C40.8149 14.9302 38.6887 9.79946 34.8522 5.96295C31.0157 2.12643 25.9311 0.000174321 20.4768 0.000174321C9.29083 -0.0460487 0.138669 9.10612 0.138669 20.2921ZM6.56367 29.9065L6.14766 29.2594C4.43741 26.5784 3.55917 23.4815 3.55917 20.2921C3.55917 11.0013 11.1398 3.42068 20.4768 3.42068C25.0067 3.42068 29.213 5.17716 32.4023 8.36655C35.5917 11.5559 37.3482 15.8085 37.3482 20.2921C37.3482 29.5829 29.7676 37.1635 20.4768 37.1635C17.4261 37.1635 14.4678 36.3315 11.8793 34.8061L11.2784 34.4363L4.89964 36.1004L6.56367 29.9065ZM15.3923 11.787C15.0225 10.955 14.6065 10.9088 14.2367 10.9088C13.9594 10.9088 13.5896 10.9088 13.266 10.9088C12.9424 10.9088 12.3878 11.0475 11.9255 11.5559C11.4633 12.0644 10.1691 13.3124 10.1691 15.8085C10.1691 18.3045 11.9718 20.7081 12.2491 21.0779C12.4802 21.4014 15.7621 26.7171 20.939 28.7509C25.2378 30.4612 26.116 30.0914 27.0405 29.9989C27.9649 29.9065 30.045 28.7509 30.461 27.5953C30.877 26.3935 30.877 25.3766 30.7383 25.1917C30.5996 24.9606 30.2761 24.8682 29.7676 24.5908C29.2592 24.3597 26.7631 23.1117 26.3009 22.9268C25.8387 22.7419 25.5151 22.6957 25.1453 23.2041C24.8218 23.7126 23.8511 24.8682 23.5275 25.1917C23.2502 25.5153 22.9266 25.5615 22.4182 25.3304C21.9097 25.0531 20.2919 24.5446 18.3505 22.7881C16.8252 21.4477 15.8083 19.7836 15.5309 19.2752C15.2536 18.7667 15.4847 18.4894 15.7621 18.2583C15.9932 18.0272 16.2705 17.6574 16.5016 17.38C16.7327 17.1027 16.8252 16.8716 17.0101 16.548C17.195 16.2245 17.1025 15.9009 16.9639 15.6698C16.8252 15.3 15.8545 12.804 15.3923 11.787Z" fill="white"/>
</g>
</g>
</svg>
